<?xml version="1.0" standalone="no"?>
<!DOCTYPE svg PUBLIC "-//W3C//DTD SVG 20010904//EN"
 "http://www.w3.org/TR/2001/REC-SVG-20010904/DTD/svg10.dtd">
<svg version="1.0" xmlns="http://www.w3.org/2000/svg"
 width="1600.000000pt" height="1600.000000pt" viewBox="0 0 1600.000000 1600.000000"
 preserveAspectRatio="xMidYMid meet">
<metadata>
Created by potrace 1.11, written by Peter Selinger 2001-2013
</metadata>
<g transform="translate(0.000000,1600.000000) scale(0.100000,-0.100000)"
fill="#000000" stroke="none">
<path d="M8715 11118 c-3 -7 -4 -587 -3 -1288 l3 -1275 165 0 165 0 3 1118 2
1117 2470 0 2470 0 0 -2630 0 -2630 -997 -2 -998 -3 0 -165 0 -165 1165 0
1165 0 0 2965 0 2965 -2803 3 c-2237 2 -2804 0 -2807 -10z"/>
<path d="M2480 9850 l0 -80 220 0 220 0 2 -607 3 -608 90 0 90 0 3 607 2 608
218 2 217 3 3 78 3 77 -536 0 -535 0 0 -80z"/>
<path d="M3742 9243 l3 -688 90 0 90 0 3 318 2 317 338 -2 337 -3 3 -318 2
-318 93 3 92 3 3 688 2 687 -95 0 -95 0 0 -295 0 -295 -340 0 -340 0 0 295 0
295 -95 0 -95 0 2 -687z"/>
<path d="M5110 9240 l0 -690 438 2 437 3 3 78 3 77 -346 0 -345 0 0 240 0 240
295 0 295 0 0 75 0 75 -295 0 -295 0 0 215 0 215 338 2 337 3 0 75 0 75 -432
3 -433 2 0 -690z"/>
<path d="M10366 7724 c-91 -18 -157 -40 -240 -81 -291 -142 -480 -425 -552
-828 -25 -144 -25 -586 0 -730 51 -283 150 -490 310 -651 146 -146 301 -224
511 -259 205 -34 419 -8 596 73 280 127 474 394 549 755 44 214 51 583 16 807
-82 513 -368 839 -800 915 -107 18 -295 18 -390 -1z m377 -300 c227 -59 389
-249 456 -536 39 -166 51 -445 30 -681 -37 -404 -204 -661 -475 -731 -316 -81
-603 43 -743 322 -91 182 -115 318 -115 657 0 288 11 375 64 531 80 235 252
404 450 443 30 6 64 13 75 15 36 9 196 -4 258 -20z"/>
<path d="M2525 7698 c-3 -7 -4 -573 -3 -1258 l3 -1245 170 0 170 0 3 486 2
487 383 5 c329 5 395 8 472 25 191 42 339 121 443 238 190 213 224 612 75 884
-53 96 -187 224 -288 277 -104 54 -228 89 -356 103 -153 15 -1068 13 -1074 -2z
m1108 -294 c178 -46 309 -173 346 -335 14 -59 14 -206 0 -271 -24 -114 -108
-226 -205 -276 -105 -53 -124 -56 -527 -61 l-377 -6 0 483 0 482 351 0 c287 0
362 -3 412 -16z"/>
<path d="M4957 7013 c-146 -384 -358 -941 -472 -1237 -113 -297 -208 -550
-211 -563 l-6 -23 173 2 174 3 119 328 119 327 520 -2 519 -3 115 -315 c64
-173 120 -321 125 -327 12 -14 333 -19 341 -5 3 4 -28 93 -68 197 -79 206
-377 986 -688 1800 l-195 510 -150 3 -149 3 -266 -698z m627 -318 l204 -560
-411 -3 c-225 -1 -412 0 -414 2 -3 2 46 143 107 313 62 169 150 412 195 538
102 281 106 292 111 280 2 -5 96 -262 208 -570z"/>
<path d="M6380 7565 l0 -145 400 0 400 0 2 -1112 3 -1113 165 0 165 0 3 1112
2 1113 398 2 397 3 3 143 3 142 -971 0 -970 0 0 -145z"/>
<path d="M8707 7704 c-10 -10 -8 -2486 1 -2502 7 -9 48 -12 173 -10 l164 3 0
1255 0 1255 -166 3 c-91 1 -168 -1 -172 -4z"/>
</g>
</svg>
