
<svg id="bee_icon-weber-logo" viewBox="0 0 226.54 93.35" xmlns="http://www.w3.org/2000/svg" width="100%" height="100%">
      <title>weber-logo</title>
      <g id="Layer_2" data-name="Layer 2">
        <g id="Layer_1-2" data-name="Layer 1">
          <g>
           
            <path class="bee__weber-logo__path-2" d="M204.85,66.88a3.92,3.92,0,0,0-.64.05l-4.5-12.78c1.08-.41,1.71-.9,1.71-1.43,0-.68-1.06-1.25-2.8-1.67l-1.36-3.86c5.58-2.48,8.8-8.55,8.8-11.18a10.27,10.27,0,0,0,.18-1.61c-.08-.42.44-.33.44-.33.71-.35.12-2.41,0-2.41s-.58.1-.65-.19c-1.4-6-7.11-7.49-11.43-7.86a4.78,4.78,0,0,0,.17-1.4,2.7,2.7,0,0,0,0-.47h.12a.92.92,0,0,0,0-1.85,20.11,20.11,0,0,0-3.55-.2,21.46,21.46,0,0,0-3.45.2.92.92,0,0,0-.09,1.84,3.76,3.76,0,0,0,0,.48,5.46,5.46,0,0,0,.12,1.33c-4.4.13-10.79,1-12.1,7.93h-.55c-.33,0-.74,1.76-.28,2.51.14.24.49.08.81.1.07.7.12.79.21,1.76.28,2.93,3.13,8.4,8.52,11L183,51c-2,.42-3.23,1-3.23,1.77,0,.57.74,1.1,2,1.53L174,74.87h1.68L177.3,71l23.47,0a4.09,4.09,0,1,0,4.08-4.1m-7.92-16.15a41.61,41.61,0,0,0-5.43-.42V48.22a14.56,14.56,0,0,0,4.35-.56Zm-.2,16.62,1.79.93-8.43.11ZM193.07,67A4,4,0,0,0,194,66l1.35.7Zm.08-45.3a3.58,3.58,0,0,0,0,.47,5.1,5.1,0,0,0,.14,1.39l-4,0a5.09,5.09,0,0,0,.15-1.35,2.79,2.79,0,0,0,0-.47ZM185.8,47.36a11.54,11.54,0,0,0,4.26.8v2.14a43.51,43.51,0,0,0-5.48.37Zm-2.69,7.29a33.93,33.93,0,0,0,7,.72v4.48a4.06,4.06,0,0,0-3.63,4,4,4,0,0,0,.28,1.48l-8.93,3.76Zm4.12,11.62a4.09,4.09,0,0,0,2,1.43l-9.24,1.55Zm13.68,3.57-19.51-.08,5.3-.73,13.3,0-.08-.06,1.08.56c0,.09-.07.19-.09.29m.63-1.29L194.45,65a4.12,4.12,0,0,0,.17-1.15A4.05,4.05,0,0,0,191.53,60V55.37a32.18,32.18,0,0,0,6.78-.78l4.52,12.83a4.07,4.07,0,0,0-1.28,1.14" style="fill: #333"></path>
            
          </g>
        </g>
      </g>
    </svg>